{"scene":0,"asset":{"generator":"ImageToStl.com","version":"2.0"},"scenes":[{"name":"Scene","nodes":[0]}],"nodes":[{"name":"Node0","children":[1,2,3,4,5,6,7,8,9,10]},{"name":"Node1","mesh":0},{"name":"Node2","mesh":1},{"name":"Node3","mesh":2},{"name":"Node4","mesh":3},{"name":"Node5","mesh":4},{"name":"Node6","mesh":5},{"name":"Node7","mesh":6},{"name":"Node8","mesh":7},{"name":"Node9","mesh":8},{"name":"Node10","mesh":9}],"materials":[{"name":"x1","pbrMetallicRoughness":{"baseColorFactor":[0.85,0.85,0.85,1.0],"metallicFactor":0.05,"roughnessFactor":0.5},"doubleSided":true}],"meshes":[{"name":"Mesh0","primitives":[{"indices":3,"material":0,"attributes":{"POSITION":0,"NORMAL":1,"TEXCOORD_0":2}}]},{"name":"Mesh0","primitives":[{"indices":7,"material":0,"attributes":{"POSITION":4,"NORMAL":5,"TEXCOORD_0":6}}]},{"name":"Mesh0","primitives":[{"indices":10,"material":0,"attributes":{"POSITION":8,"NORMAL":9}}]},{"name":"Mesh0","primitives":[{"indices":13,"material":0,"attributes":{"POSITION":11,"NORMAL":12}}]},{"name":"Mesh0","primitives":[{"indices":16,"material":0,"attributes":{"POSITION":14,"NORMAL":15}}]},{"name":"Mesh0","primitives":[{"indices":19,"material":0,"attributes":{"POSITION":17,"NORMAL":18}}]},{"name":"Mesh0","primitives":[{"indices":22,"material":0,"attributes":{"POSITION":20,"NORMAL":21}}]},{"name":"Mesh0","primitives":[{"indices":25,"material":0,"attributes":{"POSITION":23,"NORMAL":24}}]},{"name":"Mesh0","primitives":[{"indices":28,"material":0,"attributes":{"POSITION":26,"NORMAL":27}}]},{"name":"Mesh0","primitives":[{"indices":31,"material":0,"attributes":{"POSITION":29,"NORMAL":30}}]}],"accessors":[{"bufferView":0,"componentType":5126,"count":969,"type":"VEC3","min":[73.33022,-29.814138,-1281.7216],"max":[143.6837,40.678436,-34.2374]},{"bufferView":1,"componentType":5126,"count":969,"type":"VEC3"},{"bufferView":2,"componentType":5126,"count":969,"type":"VEC2"},{"bufferView":3,"componentType":5123,"count":14850,"type":"SCALAR"},{"bufferView":4,"componentType":5126,"count":124,"type":"VEC3","min":[107.6516,-17.67985,-273.22888],"max":[133.46568,2.6509945,150.30023]},{"bufferView":5,"componentType":5126,"count":124,"type":"VEC3"},{"bufferView":6,"componentType":5126,"count":124,"type":"VEC2"},{"bufferView":7,"componentType":5123,"count":1404,"type":"SCALAR"},{"bufferView":8,"componentType":5126,"count":120,"type":"VEC3","min":[98.70852,-25.913647,-272.58444],"max":[123.03102,6.40843,150.50504]},{"bufferView":9,"componentType":5126,"count":120,"type":"VEC3"},{"bufferView":10,"componentType":5123,"count":468,"type":"SCALAR"},{"bufferView":11,"componentType":5126,"count":120,"type":"VEC3","min":[92.58081,-27.868322,-272.27878],"max":[109.05867,13.660149,150.45029]},{"bufferView":12,"componentType":5126,"count":120,"type":"VEC3"},{"bufferView":13,"componentType":5123,"count":468,"type":"SCALAR"},{"bufferView":14,"componentType":5126,"count":120,"type":"VEC3","min":[87.92748,-25.425814,-272.31494],"max":[101.5037,20.446241,150.26703]},{"bufferView":15,"componentType":5126,"count":120,"type":"VEC3"},{"bufferView":16,"componentType":5123,"count":468,"type":"SCALAR"},{"bufferView":17,"componentType":5126,"count":120,"type":"VEC3","min":[82.014465,-15.646608,-272.85318],"max":[108.89572,28.13278,149.81769]},{"bufferView":18,"componentType":5126,"count":120,"type":"VEC3"},{"bufferView":19,"componentType":5123,"count":468,"type":"SCALAR"},{"bufferView":20,"componentType":5126,"count":120,"type":"VEC3","min":[83.673775,-8.145207,-273.34576],"max":[115.89225,29.29096,149.53906]},{"bufferView":21,"componentType":5126,"count":120,"type":"VEC3"},{"bufferView":22,"componentType":5123,"count":468,"type":"SCALAR"},{"bufferView":23,"componentType":5126,"count":120,"type":"VEC3","min":[97.13546,-0.14724009,-273.9982],"max":[125.28571,29.570818,149.34738]},{"bufferView":24,"componentType":5126,"count":120,"type":"VEC3"},{"bufferView":25,"componentType":5123,"count":468,"type":"SCALAR"},{"bufferView":26,"componentType":5126,"count":120,"type":"VEC3","min":[106.4349,-0.6206695,-274.13086],"max":[127.903725,27.616737,149.5275]},{"bufferView":27,"componentType":5126,"count":120,"type":"VEC3"},{"bufferView":28,"componentType":5123,"count":468,"type":"SCALAR"},{"bufferView":29,"componentType":5126,"count":120,"type":"VEC3","min":[113.24085,-6.4055295,-273.8949],"max":[130.9762,18.114006,149.86028]},{"bufferView":30,"componentType":5126,"count":120,"type":"VEC3"},{"bufferView":31,"componentType":5123,"count":468,"type":"SCALAR"}],"bufferViews":[{"target":34962,"buffer":0,"byteLength":11628,"byteOffset":0},{"target":34962,"buffer":0,"byteLength":11628,"byteOffset":11628},{"target":34962,"buffer":0,"byteLength":7752,"byteOffset":23256},{"target":34963,"buffer":0,"byteLength":29700,"byteOffset":31008},{"target":34962,"buffer":0,"byteLength":1488,"byteOffset":60708},{"target":34962,"buffer":0,"byteLength":1488,"byteOffset":62196},{"target":34962,"buffer":0,"byteLength":992,"byteOffset":63684},{"target":34963,"buffer":0,"byteLength":2808,"byteOffset":64676},{"target":34962,"buffer":0,"byteLength":1440,"byteOffset":67484},{"target":34962,"buffer":0,"byteLength":1440,"byteOffset":68924},{"target":34963,"buffer":0,"byteLength":936,"byteOffset":70364},{"target":34962,"buffer":0,"byteLength":1440,"byteOffset":71300},{"target":34962,"buffer":0,"byteLength":1440,"byteOffset":72740},{"target":34963,"buffer":0,"byteLength":936,"byteOffset":74180},{"target":34962,"buffer":0,"byteLength":1440,"byteOffset":75116},{"target":34962,"buffer":0,"byteLength":1440,"byteOffset":76556},{"target":34963,"buffer":0,"byteLength":936,"byteOffset":77996},{"target":34962,"buffer":0,"byteLength":1440,"byteOffset":78932},{"target":34962,"buffer":0,"byteLength":1440,"byteOffset":80372},{"target":34963,"buffer":0,"byteLength":936,"byteOffset":81812},{"target":34962,"buffer":0,"byteLength":1440,"byteOffset":82748},{"target":34962,"buffer":0,"byteLength":1440,"byteOffset":84188},{"target":34963,"buffer":0,"byteLength":936,"byteOffset":85628},{"target":34962,"buffer":0,"byteLength":1440,"byteOffset":86564},{"target":34962,"buffer":0,"byteLength":1440,"byteOffset":88004},{"target":34963,"buffer":0,"byteLength":936,"byteOffset":89444},{"target":34962,"buffer":0,"byteLength":1440,"byteOffset":90380},{"target":34962,"buffer":0,"byteLength":1440,"byteOffset":91820},{"target":34963,"buffer":0,"byteLength":936,"byteOffset":93260},{"target":34962,"buffer":0,"byteLength":1440,"byteOffset":94196},{"target":34962,"buffer":0,"byteLength":1440,"byteOffset":95636},{"target":34963,"buffer":0,"byteLength":936,"byteOffset":97076}],"buffers":[{"byteLength":98012,"uri":"data:application/octet-stream;base64,"}]}